{
	"asset":{
		"generator":"Khronos glTF Blender I/O v3.6.28",
		"version":"2.0"
	},
	"scene":0,
	"scenes":[
		{
			"name":"Scene",
			"nodes":[
				0
			]
		}
	],
	"nodes":[
		{
			"mesh":0,
			"name":"Throw_Pillow_2",
			"rotation":[
				-1,
				0,
				0,
				7.549789415861596e-08
			],
			"scale":[
				0.009999999776482582,
				0.009999999776482582,
				0.009999999776482582
			]
		}
	],
	"meshes":[
		{
			"name":"\u7f51\u683c.001",
			"primitives":[
				{
					"attributes":{
						"POSITION":0,
						"NORMAL":1,
						"TEXCOORD_0":2
					},
					"indices":3
				}
			]
		}
	],
	"accessors":[
		{
			"bufferView":0,
			"componentType":5126,
			"count":6002,
			"max":[
				23.88478660583496,
				21.286609649658203,
				11.71165943145752
			],
			"min":[
				-23.88478660583496,
				-21.286609649658203,
				-11.71165943145752
			],
			"type":"VEC3"
		},
		{
			"bufferView":1,
			"componentType":5126,
			"count":6002,
			"type":"VEC3"
		},
		{
			"bufferView":2,
			"componentType":5126,
			"count":6002,
			"type":"VEC2"
		},
		{
			"bufferView":3,
			"componentType":5123,
			"count":34800,
			"type":"SCALAR"
		}
	],
	"bufferViews":[
		{
			"buffer":0,
			"byteLength":72024,
			"byteOffset":0,
			"target":34962
		},
		{
			"buffer":0,
			"byteLength":72024,
			"byteOffset":72024,
			"target":34962
		},
		{
			"buffer":0,
			"byteLength":48016,
			"byteOffset":144048,
			"target":34962
		},
		{
			"buffer":0,
			"byteLength":69600,
			"byteOffset":192064,
			"target":34963
		}
	],
	"buffers":[
		{
			"byteLength":261664,
			"uri":"data:application/octet-stream;base64,"
		}
	]
}
