{
	"asset":{
		"generator":"Khronos glTF Blender I/O v3.6.28",
		"version":"2.0"
	},
	"scene":0,
	"scenes":[
		{
			"name":"Scene",
			"nodes":[
				0
			]
		}
	],
	"nodes":[
		{
			"mesh":0,
			"name":"GSG_Doodads_Array_03",
			"rotation":[
				0.7071068286895752,
				0,
				0,
				0.7071068286895752
			],
			"scale":[
				0.009999999776482582,
				0.009999999776482582,
				0.009999999776482582
			]
		}
	],
	"meshes":[
		{
			"name":"\u7f51\u683c.003",
			"primitives":[
				{
					"attributes":{
						"POSITION":0,
						"NORMAL":1,
						"TEXCOORD_0":2
					},
					"indices":3
				}
			]
		}
	],
	"accessors":[
		{
			"bufferView":0,
			"componentType":5126,
			"count":5555,
			"max":[
				9.057046890258789,
				9.067333221435547,
				9.082245826721191
			],
			"min":[
				-9.057046890258789,
				-9.067333221435547,
				-9.08348560333252
			],
			"type":"VEC3"
		},
		{
			"bufferView":1,
			"componentType":5126,
			"count":5555,
			"type":"VEC3"
		},
		{
			"bufferView":2,
			"componentType":5126,
			"count":5555,
			"type":"VEC2"
		},
		{
			"bufferView":3,
			"componentType":5123,
			"count":32400,
			"type":"SCALAR"
		}
	],
	"bufferViews":[
		{
			"buffer":0,
			"byteLength":66660,
			"byteOffset":0,
			"target":34962
		},
		{
			"buffer":0,
			"byteLength":66660,
			"byteOffset":66660,
			"target":34962
		},
		{
			"buffer":0,
			"byteLength":44440,
			"byteOffset":133320,
			"target":34962
		},
		{
			"buffer":0,
			"byteLength":64800,
			"byteOffset":177760,
			"target":34963
		}
	],
	"buffers":[
		{
			"byteLength":242560,
			"uri":"data:application/octet-stream;base64,"
		}
	]
}
