{
	"asset":{
		"generator":"Khronos glTF Blender I/O v3.6.28",
		"version":"2.0"
	},
	"scene":0,
	"scenes":[
		{
			"name":"Scene",
			"nodes":[
				0
			]
		}
	],
	"nodes":[
		{
			"mesh":0,
			"name":"GSG_Doodads_Cone_06",
			"rotation":[
				0.7071068286895752,
				0,
				0,
				0.7071068286895752
			],
			"scale":[
				0.009999999776482582,
				0.009999999776482582,
				0.009999999776482582
			]
		}
	],
	"meshes":[
		{
			"name":"\u7f51\u683c",
			"primitives":[
				{
					"attributes":{
						"POSITION":0,
						"NORMAL":1,
						"TEXCOORD_0":2
					},
					"indices":3
				}
			]
		}
	],
	"accessors":[
		{
			"bufferView":0,
			"componentType":5126,
			"count":2653,
			"max":[
				9.771312713623047,
				9.749414443969727,
				0
			],
			"min":[
				-9.771312713623047,
				-9.749414443969727,
				-19.4063663482666
			],
			"type":"VEC3"
		},
		{
			"bufferView":1,
			"componentType":5126,
			"count":2653,
			"type":"VEC3"
		},
		{
			"bufferView":2,
			"componentType":5126,
			"count":2653,
			"type":"VEC2"
		},
		{
			"bufferView":3,
			"componentType":5123,
			"count":15432,
			"type":"SCALAR"
		}
	],
	"bufferViews":[
		{
			"buffer":0,
			"byteLength":31836,
			"byteOffset":0,
			"target":34962
		},
		{
			"buffer":0,
			"byteLength":31836,
			"byteOffset":31836,
			"target":34962
		},
		{
			"buffer":0,
			"byteLength":21224,
			"byteOffset":63672,
			"target":34962
		},
		{
			"buffer":0,
			"byteLength":30864,
			"byteOffset":84896,
			"target":34963
		}
	],
	"buffers":[
		{
			"byteLength":115760,
			"uri":"data:application/octet-stream;base64,"
		}
	]
}
