{
	"asset":{
		"generator":"Khronos glTF Blender I/O v3.6.28",
		"version":"2.0"
	},
	"scene":0,
	"scenes":[
		{
			"name":"Scene",
			"nodes":[
				0
			]
		}
	],
	"nodes":[
		{
			"mesh":0,
			"name":"GSG_Doodads_Totem_12",
			"rotation":[
				0.7071068286895752,
				0,
				0,
				0.7071068286895752
			],
			"scale":[
				0.009999999776482582,
				0.009999999776482582,
				0.009999999776482582
			]
		}
	],
	"meshes":[
		{
			"name":"\u7f51\u683c.002",
			"primitives":[
				{
					"attributes":{
						"POSITION":0,
						"NORMAL":1,
						"TEXCOORD_0":2
					},
					"indices":3
				}
			]
		}
	],
	"accessors":[
		{
			"bufferView":0,
			"componentType":5126,
			"count":3447,
			"max":[
				3.4627819061279297,
				3.4631175994873047,
				0
			],
			"min":[
				-3.4627819061279297,
				-3.4631175994873047,
				-19.990230560302734
			],
			"type":"VEC3"
		},
		{
			"bufferView":1,
			"componentType":5126,
			"count":3447,
			"type":"VEC3"
		},
		{
			"bufferView":2,
			"componentType":5126,
			"count":3447,
			"type":"VEC2"
		},
		{
			"bufferView":3,
			"componentType":5123,
			"count":19680,
			"type":"SCALAR"
		}
	],
	"bufferViews":[
		{
			"buffer":0,
			"byteLength":41364,
			"byteOffset":0,
			"target":34962
		},
		{
			"buffer":0,
			"byteLength":41364,
			"byteOffset":41364,
			"target":34962
		},
		{
			"buffer":0,
			"byteLength":27576,
			"byteOffset":82728,
			"target":34962
		},
		{
			"buffer":0,
			"byteLength":39360,
			"byteOffset":110304,
			"target":34963
		}
	],
	"buffers":[
		{
			"byteLength":149664,
			"uri":"data:application/octet-stream;base64,"
		}
	]
}
